<svg width="196" height="132" viewBox="0 0 196 132" fill="none" xmlns="http://www.w3.org/2000/svg">
<path d="M165 50C165 77.6142 142.614 100 115 100C87.3858 100 65 77.6142 65 50C65 22.3858 87.3858 0 115 0C142.614 0 165 22.3858 165 50Z" fill="#3300FF"/>
<path d="M131 82C131 109.614 108.614 132 81 132C53.3858 132 31 109.614 31 82C31 54.3858 53.3858 32 81 32C108.614 32 131 54.3858 131 82Z" fill="#B2A4E7"/>
<path d="M0.320007 87H10.4V63.48H35.36V54.36H10.4V39.48H36.88V30.36H0.320007V87Z" fill="white"/>
<path d="M45.5375 87H55.1375V48.6H45.5375V87ZM44.1775 35.56C44.1775 38.6 46.7375 41.32 50.2575 41.32C53.7775 41.32 56.4975 38.84 56.4975 35.56C56.4975 32.28 53.7775 29.8 50.2575 29.8C46.7375 29.8 44.1775 32.52 44.1775 35.56Z" fill="white"/>
<path d="M66.3188 87H75.9188V26.52H66.3188V87Z" fill="white"/>
<path d="M87.1 87H96.7V26.52H87.1V87Z" fill="white"/>
<path d="M142.761 48.6H133.161V69.56C133.161 74.68 130.681 79.32 124.361 79.32C117.641 79.32 117.321 72.28 117.321 68.04V48.6H107.721V72.84C107.721 80.68 111.401 87.96 121.721 87.96C128.121 87.96 131.721 84.68 133.481 80.84H133.641V87H142.761V48.6Z" fill="white"/>
<path d="M153.659 105.24H163.259V82.12H163.499C165.499 84.6 169.339 87.96 176.539 87.96C187.499 87.96 195.099 79.16 195.099 67.8C195.099 56.44 187.979 47.64 176.139 47.64C170.779 47.64 165.739 49.72 162.939 54.36H162.779V48.6H153.659V105.24ZM185.499 67.8C185.499 73.8 181.259 79.32 174.219 79.32C167.179 79.32 162.939 73.8 162.939 67.8C162.939 61.8 167.179 56.28 174.219 56.28C181.259 56.28 185.499 61.8 185.499 67.8Z" fill="white"/>
</svg>
