<svg width="146" height="150" viewBox="0 0 146 150" fill="none" xmlns="http://www.w3.org/2000/svg">
<circle cx="96" cy="50" r="50" fill="black" fill-opacity="0.5"/>
<circle cx="54" cy="100" r="50" fill="white" fill-opacity="0.2"/>
<path d="M26.8 101H36.4V89.48H44.64V80.84H36.4V44.36H25.52L2.72 79.96V89.48H26.8V101ZM26.8 80.84H12.48L26.64 57.96H26.8V80.84ZM50.5438 72.68C50.5438 99.48 64.7038 101.96 71.0238 101.96C77.3438 101.96 91.5038 99.48 91.5038 72.68C91.5038 45.88 77.3438 43.4 71.0238 43.4C64.7038 43.4 50.5438 45.88 50.5438 72.68ZM60.1438 72.68C60.1438 65.64 61.4238 52.52 71.0238 52.52C80.6238 52.52 81.9038 65.64 81.9038 72.68C81.9038 79.72 80.6238 92.84 71.0238 92.84C61.4238 92.84 60.1438 79.72 60.1438 72.68ZM121.488 101H131.088V89.48H139.328V80.84H131.088V44.36H120.208L97.4075 79.96V89.48H121.488V101ZM121.488 80.84H107.168L121.328 57.96H121.488V80.84Z" fill="white"/>
</svg>
