<svg width="205" height="150" viewBox="0 0 205 150" fill="none" xmlns="http://www.w3.org/2000/svg">
<circle cx="127" cy="50" r="50" fill="black" fill-opacity="0.5"/>
<circle cx="85" cy="100" r="50" fill="white" fill-opacity="0.2"/>
<path d="M6.32 100H16.4V76.48H41.36V67.36H16.4V52.48H42.88V43.36H6.32V100ZM51.5375 100H61.1375V61.6H51.5375V100ZM50.1775 48.56C50.1775 51.6 52.7375 54.32 56.2575 54.32C59.7775 54.32 62.4975 51.84 62.4975 48.56C62.4975 45.28 59.7775 42.8 56.2575 42.8C52.7375 42.8 50.1775 45.52 50.1775 48.56ZM72.3188 100H81.9188V39.52H72.3188V100ZM93.1 100H102.7V39.52H93.1V100ZM148.761 61.6H139.161V82.56C139.161 87.68 136.681 92.32 130.361 92.32C123.641 92.32 123.321 85.28 123.321 81.04V61.6H113.721V85.84C113.721 93.68 117.401 100.96 127.721 100.96C134.121 100.96 137.721 97.68 139.481 93.84H139.641V100H148.761V61.6ZM159.659 118.24H169.259V95.12H169.499C171.499 97.6 175.339 100.96 182.539 100.96C193.499 100.96 201.099 92.16 201.099 80.8C201.099 69.44 193.979 60.64 182.139 60.64C176.779 60.64 171.739 62.72 168.939 67.36H168.779V61.6H159.659V118.24ZM191.499 80.8C191.499 86.8 187.259 92.32 180.219 92.32C173.179 92.32 168.939 86.8 168.939 80.8C168.939 74.8 173.179 69.28 180.219 69.28C187.259 69.28 191.499 74.8 191.499 80.8Z" fill="white"/>
</svg>
